<svg width="40" height="40" viewBox="0 0 40 40" fill="none" xmlns="http://www.w3.org/2000/svg"><g style="mix-blend-mode:darken" stroke="#212121" stroke-width="1.6" stroke-linecap="round" stroke-linejoin="round"><path d="M28.306 14.997a3.26 3.26 0 106.519 0 3.26 3.26 0 00-6.52 0zM23.71 29.345c0-4.135 3.493-7.487 7.802-7.487 2.287 0 4.344.944 5.771 2.448m-25.776-9.309a3.26 3.26 0 11-6.52 0 3.26 3.26 0 016.52 0zm4.596 14.348c0-4.135-3.494-7.487-7.803-7.487-2.286 0-4.344.944-5.77 2.448"/><path d="M19.939 16.442a4.509 4.509 0 100-9.017 4.509 4.509 0 000 9.017zM20 21.384c-7.294 0-13.209 5.748-13.209 12.837h26.418c0-7.09-5.914-12.837-13.209-12.837z" fill="#fff"/></g></svg>