<?xml version="1.0" encoding="utf-8"?><!-- Uploaded to: SVG Repo, www.svgrepo.com, Generator: SVG Repo Mixer Tools -->
<svg width="800px" height="800px" viewBox="0 0 24 24" fill="none" xmlns="http://www.w3.org/2000/svg">
<path fill-rule="evenodd" clip-rule="evenodd" d="M4.875 7.73701V16.263C4.87655 16.7255 5.05722 17.1683 5.37723 17.4941C5.69724 17.8199 6.13036 18.0019 6.58125 18H16.8187C17.2696 18.0019 17.7028 17.8199 18.0228 17.4941C18.3428 17.1683 18.5235 16.7255 18.525 16.263V7.73701C18.5235 7.27457 18.3428 6.83171 18.0228 6.50593C17.7028 6.18015 17.2696 5.99815 16.8187 6.00001H6.58125C6.13036 5.99815 5.69724 6.18015 5.37723 6.50593C5.05722 6.83171 4.87655 7.27457 4.875 7.73701Z" stroke="#000000" stroke-width="1.5" stroke-linecap="round" stroke-linejoin="round"/>
<path d="M18.525 10.855C18.9392 10.855 19.275 10.5192 19.275 10.105C19.275 9.69077 18.9392 9.35498 18.525 9.35498V10.855ZM4.875 9.35498C4.46079 9.35498 4.125 9.69077 4.125 10.105C4.125 10.5192 4.46079 10.855 4.875 10.855V9.35498ZM12.5531 13.934C12.9673 13.934 13.3031 13.5982 13.3031 13.184C13.3031 12.7698 12.9673 12.434 12.5531 12.434V13.934ZM4.875 12.434C4.46079 12.434 4.125 12.7698 4.125 13.184C4.125 13.5982 4.46079 13.934 4.875 13.934V12.434ZM15.9656 13.934C16.3798 13.934 16.7156 13.5982 16.7156 13.184C16.7156 12.7698 16.3798 12.434 15.9656 12.434V13.934ZM15.1125 12.434C14.6983 12.434 14.3625 12.7698 14.3625 13.184C14.3625 13.5982 14.6983 13.934 15.1125 13.934V12.434ZM18.525 9.35498H4.875V10.855H18.525V9.35498ZM12.5531 12.434H4.875V13.934H12.5531V12.434ZM15.9656 12.434H15.1125V13.934H15.9656V12.434Z" fill="#000000"/>
</svg>