<svg width="40" height="40" viewBox="0 0 40 40" fill="none" xmlns="http://www.w3.org/2000/svg"><g style="mix-blend-mode:darken"><path d="M33.64 34.445c.441 0 .803-.407.803-.903V6.459c0-.496-.361-.902-.803-.902H6.357c-.441 0-.802.406-.802.902v27.083c0 .496.36.903.802.903H33.64z" stroke="#222325" stroke-width="1.6" stroke-miterlimit="10" stroke-linejoin="round"/><path d="M26.417 20L26 19.317 24.883 20l1.117.682.417-.682zm-6.42 6.424l.683-.418-.682-1.114-.683 1.114.682.418zm-6.423-6.422l.418.682L15.106 20l-1.115-.681-.417.683zm5.734-7.292l-.566.566.566-.566zm.687.872l-.683.417.683 1.12.683-1.12-.683-.417zm-1.551 6.415l-.418-.681-1.115.683 1.116.681.417-.683zm1.554 1.553l-.682.418.682 1.114.682-1.114-.682-.418zm1.553-1.551l.417.682L23.085 20l-1.116-.683-.418.683zm-1.555-1.557l.683-.417-.683-1.12-.683 1.12.683.417zm6.838 2.24c.364-.221.706-.49 1.02-.802l-1.132-1.132a3.884 3.884 0 01-.722.57l.834 1.365zm1.018-.563a5.48 5.48 0 00-1.017-.802L26 20.682c.256.157.498.346.72.568l1.132-1.13zm0 7.736a5.47 5.47 0 000-7.736L26.72 21.25a3.87 3.87 0 010 5.474l1.132 1.131zm-7.737 0a5.47 5.47 0 007.737 0l-1.132-1.13a3.87 3.87 0 01-5.473 0l-1.132 1.13zm-.8-1.014c.222.362.488.703.8 1.014l1.132-1.13a3.884 3.884 0 01-.567-.72l-1.365.836zm0-.835a3.885 3.885 0 01-.566.717l1.131 1.132c.312-.312.578-.652.8-1.013l-1.365-.836zm-.566.717a3.87 3.87 0 01-5.474 0l-1.131 1.132a5.47 5.47 0 007.736 0l-1.131-1.132zm-5.474 0a3.87 3.87 0 010-5.473l-1.131-1.132a5.47 5.47 0 000 7.737l1.131-1.132zm0-5.473c.222-.222.463-.41.717-.566l-.837-1.364c-.36.22-.7.487-1.011.798l1.131 1.132zm-1.138-1.369a5.47 5.47 0 001.02.803l.834-1.365a3.886 3.886 0 01-.723-.57l-1.13 1.132zm0-7.736a5.47 5.47 0 000 7.736l1.131-1.131a3.87 3.87 0 010-5.474l-1.13-1.131zm7.736 0a5.47 5.47 0 00-7.736 0l1.131 1.131a3.87 3.87 0 015.474 0l1.131-1.131zm.805 1.02a5.482 5.482 0 00-.805-1.02l-1.13 1.131c.223.223.412.466.569.723l1.366-.833zm-.56-1.022a5.48 5.48 0 00-.806 1.023l1.366.833c.157-.257.347-.5.57-.725l-1.13-1.13zm7.736 0a5.47 5.47 0 00-7.737 0l1.131 1.131a3.87 3.87 0 015.474 0l1.131-1.13zm0 7.736a5.47 5.47 0 000-7.736l-1.132 1.131a3.87 3.87 0 010 5.474l1.131 1.131zm-9.827.801c.256.157.499.346.722.57l1.131-1.132a5.488 5.488 0 00-1.02-.803l-.833 1.365zm.722.57c.222.221.41.463.567.718l1.364-.836a5.488 5.488 0 00-.8-1.014l-1.13 1.132zm1.366-1.13a5.482 5.482 0 00-.8 1.012l1.365.836c.156-.255.345-.496.567-.718l-1.132-1.13zm1.02-.804a5.48 5.48 0 00-1.02.803l1.132 1.131c.223-.223.465-.412.721-.569l-.834-1.365zm-1.018.564c.313.312.654.58 1.017.801l.835-1.365a3.876 3.876 0 01-.72-.568l-1.132 1.131zm-.804-1.021c.222.364.49.707.804 1.02l1.131-1.13a3.88 3.88 0 01-.57-.724l-1.365.834zm.56 1.022c.315-.314.583-.658.806-1.023l-1.366-.833a3.902 3.902 0 01-.57.725l1.13 1.131zm-1.011.799c.36-.222.7-.488 1.012-.799l-1.132-1.131c-.221.221-.462.41-.716.566l.836 1.364z" fill="#222325"/><path fill="#fff" d="M15.834 16h8v8h-8z"/><circle cx="19.997" cy="20" r="2.514" transform="rotate(-45 19.997 20)" fill="#222325"/><path fill="#fff" stroke="#222325" stroke-width="1.2" stroke-linejoin="round" d="M3.474 3.474h3.419v3.419H3.474zm29.633 0h3.419v3.419h-3.419zM3.474 33.106h3.419v3.419H3.474zm29.633 0h3.419v3.419h-3.419z"/></g></svg>