<?xml version="1.0" ?><!DOCTYPE svg  PUBLIC '-//W3C//DTD SVG 1.1//EN'  'http://www.w3.org/Graphics/SVG/1.1/DTD/svg11.dtd'><svg height="512px" style="enable-background:new 0 0 512 512;" version="1.1" viewBox="0 0 512 512" width="512px" xml:space="preserve" xmlns="http://www.w3.org/2000/svg" xmlns:xlink="http://www.w3.org/1999/xlink"><g id="pintrest__x2C__social__x2C__media__x2C__icon"><g><path d="M425.614,86.346C382.305,42.9,322.253,16.066,255.962,16.066    c-66.16,0-126.207,26.834-169.652,70.279c-43.445,43.442-70.282,103.359-70.282,169.652c0,66.292,26.836,126.211,70.282,169.654    c43.445,43.447,103.492,70.281,169.652,70.281c66.291,0,126.342-26.834,169.652-70.281    c43.443-43.443,70.282-103.362,70.282-169.654C495.896,189.705,469.058,129.788,425.614,86.346z M412.465,412.365    c-40.126,40.126-95.389,64.835-156.502,64.835c-60.979,0-116.379-24.709-156.365-64.835    c-39.993-39.984-64.835-95.252-64.835-156.367c0-61.111,24.842-116.377,64.835-156.365C139.583,59.509,194.983,34.8,255.962,34.8    c61.114,0,116.376,24.709,156.502,64.833c39.988,39.988,64.698,95.254,64.698,156.365    C477.163,317.113,452.453,372.381,412.465,412.365z" style="fill-rule:evenodd;clip-rule:evenodd;fill:#262626;"/><path d="M261.809,133.643c-68.815,0-103.757,47.694-103.757,87.683    c0,7.438,0.797,14.614,2.657,21.123c4.119,15.012,13.02,27.102,27.104,32.685c3.319,1.458,6.374,0,7.171-3.454    c0.8-2.526,2.255-8.64,3.057-11.295c1.063-3.589,0.663-4.781-1.994-7.838c-3.452-4.121-6.376-8.771-7.969-14.616    c-1.064-3.853-1.729-8.104-1.729-13.018c0-35.473,27.499-67.359,71.609-67.359c38.924,0,60.449,22.984,60.449,53.808    c0,9.17-0.933,17.804-2.66,26.039c-6.108,28.299-22.05,48.759-43.442,48.759c-15.145,0-26.704-12.095-22.982-27.106    c2.127-8.363,5.179-17.136,7.838-25.639c2.79-8.903,5.18-17.536,5.18-24.178c0-11.692-6.376-21.123-19.791-21.123    c-15.549,0-28.034,15.677-28.034,36.397c0,3.856,0.393,7.576,0.927,10.363c1.462,7.442,3.722,11.959,3.722,11.959    s-15.941,65.232-18.601,76.66c-5.579,22.846-0.797,50.611-0.396,53.403c0.133,1.59,2.388,1.992,3.455,0.795    c1.459-1.854,19.923-23.782,26.302-45.965c1.594-6.378,10.232-38.791,10.232-38.791c4.917,9.435,19.661,17.668,35.469,17.668    c37.859,0,66.028-27.501,75.193-67.489c2.125-9.036,3.189-18.868,3.189-28.961C354.008,172.302,317.474,133.643,261.809,133.643z" style="fill-rule:evenodd;clip-rule:evenodd;fill:#262626;"/></g></g><g id="Layer_1"/></svg>