<svg width="41" height="40" viewBox="0 0 41 40" fill="none" xmlns="http://www.w3.org/2000/svg"><g clip-path="url(#clip0_2579_16452)"><path d="M34.937 25.79c.49 0 .88-.3.88-.66V5.46c0-.36-.4-.66-.88-.66H4.847c-.49 0-.88.3-.88.66v19.67c0 .36.4.66.88.66h30.09z" fill="#fff" stroke="#222325" stroke-width="1.6" stroke-linejoin="round"/><path d="M31.085 8.87h-22.4a.648.648 0 00-.65.645c0 .356.291.645.65.645h22.4c.36 0 .65-.289.65-.645a.648.648 0 00-.65-.645zM13.567 26.56v2.04l-2.1 2.1a3.028 3.028 0 00-4.5 2.65 3.02 3.02 0 003.03 3.02c1.67 0 3.02-1.35 3.02-3.02 0-.54-.14-1.04-.38-1.48l2.34-2.34c.16-.16.24-.37.24-.58v-2.39h-1.65zm-3.57 8.16a1.374 1.374 0 110-2.75c.37 0 .71.15.96.39h.01l.01.03c.24.24.39.58.39.96 0 .76-.61 1.37-1.37 1.37zm10.72-4.29v-3.87h-1.65v3.87c-1.27.36-2.2 1.53-2.2 2.92 0 1.67 1.36 3.02 3.03 3.02 1.67 0 3.02-1.35 3.02-3.02 0-1.39-.93-2.56-2.2-2.92zm-.82 4.29a1.374 1.374 0 110-2.75c.76 0 1.37.62 1.37 1.38 0 .76-.61 1.37-1.37 1.37zm9.9-4.4c-.54 0-1.04.14-1.47.38l-2.1-2.1v-2.04h-1.65v2.39c0 .21.08.42.24.58l2.34 2.34c-.25.44-.38.94-.38 1.48 0 1.67 1.35 3.02 3.02 3.02s3.03-1.35 3.03-3.02-1.36-3.03-3.03-3.03zm0 4.4c-.76 0-1.37-.61-1.37-1.37 0-.38.14-.72.39-.96v-.02l.02-.01c.25-.24.59-.39.96-.39a1.374 1.374 0 110 2.75z" fill="#222325"/></g><defs><clipPath id="clip0_2579_16452"><path fill="#fff" transform="translate(3.166 4)" d="M0 0h33.45v32.37H0z"/></clipPath></defs></svg>