<svg width="40" height="40" viewBox="0 0 40 40" fill="none" xmlns="http://www.w3.org/2000/svg"><g style="mix-blend-mode:darken" stroke-linejoin="round"><path d="M29.897 34.625c.406 0 .738-.3.738-.665V14.017c0-.365-.332-.665-.738-.665H4.784c-.407 0-.74.3-.74.665V33.96c0 .366.333.665.74.665h25.113z" stroke="#222325" stroke-width="1.6" stroke-miterlimit="10"/><path d="M35.215 26.647c.406 0 .739-.299.739-.664V6.04c0-.366-.333-.665-.739-.665H10.102c-.406 0-.739.3-.739.665v19.943c0 .365.333.664.739.664h25.113z" fill="#fff" stroke="#222325" stroke-width="1.6" stroke-miterlimit="10"/><path d="M18.668 12.023l7.977 3.988L18.668 20v-7.977z" fill="#222325" stroke="#212121" stroke-linecap="round"/></g></svg>