<svg width="41" height="40" viewBox="0 0 41 40" fill="none" xmlns="http://www.w3.org/2000/svg"><g style="mix-blend-mode:darken" clip-path="url(#clip0_2578_16595)" fill="#222325" stroke="#fff" stroke-miterlimit="10" stroke-linecap="square"><path fill-rule="evenodd" clip-rule="evenodd" d="M1.984 4.126a3.34 3.34 0 012.437-1.07h14.583a3.34 3.34 0 012.437 1.07c.633.675.979 1.578.979 2.507v7.466h-1.97V6.633c0-.447-.166-.863-.445-1.16a1.372 1.372 0 00-1-.449H4.42c-.362 0-.724.153-1 .449a1.699 1.699 0 00-.446 1.16v14.26c0 .446.166.862.445 1.16.277.295.639.447 1 .447h10.708v1.97H4.42a3.34 3.34 0 01-2.437-1.071 3.667 3.667 0 01-.978-2.507V6.632c0-.928.345-1.83.978-2.506z" stroke-width=".6"/><path fill-rule="evenodd" clip-rule="evenodd" d="M22.026 18.857c-.362 0-.723.152-1 .448a1.699 1.699 0 00-.446 1.16v14.26c0 .446.167.862.446 1.16.277.295.638.448 1 .448H36.61c.362 0 .724-.153 1-.449.28-.297.446-.713.446-1.16v-14.26c0-.446-.167-.862-.445-1.16a1.372 1.372 0 00-1.001-.447H22.026zm-2.436-.899a3.34 3.34 0 012.436-1.07H36.61a3.34 3.34 0 012.437 1.07c.633.675.978 1.578.978 2.507v14.26c0 .928-.345 1.83-.978 2.506a3.34 3.34 0 01-2.437 1.07H22.026a3.34 3.34 0 01-2.436-1.07 3.667 3.667 0 01-.979-2.507v-14.26c0-.928.346-1.83.979-2.506z" stroke-width=".6"/><path fill-rule="evenodd" clip-rule="evenodd" d="M31.951 32.886h2.23l-3.94-10.221h-2.005l-3.978 10.22h2.23l1.072-2.86h3.33l1.061 2.86zm-3.715-4.69l.995-2.675.986 2.676h-1.981z" stroke-width=".4"/><path d="M17.252 11.335c-.52-.047-.98-.07-1.676-.07a9.25 9.25 0 01-.803 2.274 8.729 8.729 0 01-1.31 1.91 11.35 11.35 0 004.049 1.425 7.574 7.574 0 00-1.17 2.17 14.597 14.597 0 01-4.497-2.146 15.1 15.1 0 01-4.699 2.169 6.83 6.83 0 00-1.132-2.087 12.85 12.85 0 004.19-1.543 10.26 10.26 0 01-1.522-2.16 10.332 10.332 0 01-.815-2.015 18.4 18.4 0 00-1.688.07v-2.13c.568.06 1.14.088 1.711.082h2.61v-.707a3.55 3.55 0 00-.071-.73H12.8a3.616 3.616 0 00-.07.718v.72h2.808c.572.006 1.144-.022 1.713-.083v2.133zm-7.119-.07a6.72 6.72 0 001.654 2.852 6.654 6.654 0 001.476-2.853h-3.13z" stroke-width=".4"/></g><defs><clipPath id="clip0_2578_16595"><path fill="#fff" transform="translate(.666)" d="M0 0h40v40H0z"/></clipPath></defs></svg>